<mxfile host="app.diagrams.net" modified="2023-10-30T01:55:10.819Z" agent="Mozilla/5.0 (Windows NT 10.0; Win64; x64) AppleWebKit/537.36 (KHTML, like Gecko) Chrome/93.0.4577.63 Safari/537.36 Edg/93.0.961.47" etag="Mkz6qut-MmGoOLVHhE0j" version="22.0.8" type="github">
  <diagram name="第 1 页" id="nnUM-ja4P63R1GYAOqcD">
    <mxGraphModel dx="1290" dy="615" grid="1" gridSize="10" guides="1" tooltips="1" connect="1" arrows="1" fold="1" page="1" pageScale="1" pageWidth="827" pageHeight="1169" math="0" shadow="0">
      <root>
        <mxCell id="0" />
        <mxCell id="1" parent="0" />
        <mxCell id="qjlO5Mem31rVgN0M7t5V-12" style="edgeStyle=orthogonalEdgeStyle;rounded=0;orthogonalLoop=1;jettySize=auto;html=1;entryX=0;entryY=0.5;entryDx=0;entryDy=0;" edge="1" parent="1" source="qjlO5Mem31rVgN0M7t5V-8" target="qjlO5Mem31rVgN0M7t5V-11">
          <mxGeometry relative="1" as="geometry" />
        </mxCell>
        <mxCell id="qjlO5Mem31rVgN0M7t5V-8" value="开始" style="rounded=1;whiteSpace=wrap;html=1;" vertex="1" parent="1">
          <mxGeometry y="340" width="120" height="60" as="geometry" />
        </mxCell>
        <mxCell id="qjlO5Mem31rVgN0M7t5V-14" value="" style="edgeStyle=orthogonalEdgeStyle;rounded=0;orthogonalLoop=1;jettySize=auto;html=1;" edge="1" parent="1" source="qjlO5Mem31rVgN0M7t5V-11" target="qjlO5Mem31rVgN0M7t5V-13">
          <mxGeometry relative="1" as="geometry" />
        </mxCell>
        <mxCell id="qjlO5Mem31rVgN0M7t5V-11" value="选中圆弧圆心移动" style="rounded=0;whiteSpace=wrap;html=1;" vertex="1" parent="1">
          <mxGeometry x="160" y="340" width="120" height="60" as="geometry" />
        </mxCell>
        <mxCell id="qjlO5Mem31rVgN0M7t5V-16" value="" style="edgeStyle=orthogonalEdgeStyle;rounded=0;orthogonalLoop=1;jettySize=auto;html=1;" edge="1" parent="1" source="qjlO5Mem31rVgN0M7t5V-13" target="qjlO5Mem31rVgN0M7t5V-15">
          <mxGeometry relative="1" as="geometry" />
        </mxCell>
        <mxCell id="qjlO5Mem31rVgN0M7t5V-13" value="更改圆弧圆心几何数据" style="whiteSpace=wrap;html=1;rounded=0;" vertex="1" parent="1">
          <mxGeometry x="320" y="340" width="120" height="60" as="geometry" />
        </mxCell>
        <mxCell id="qjlO5Mem31rVgN0M7t5V-76" style="edgeStyle=orthogonalEdgeStyle;rounded=0;orthogonalLoop=1;jettySize=auto;html=1;entryX=0.5;entryY=0;entryDx=0;entryDy=0;" edge="1" parent="1" source="qjlO5Mem31rVgN0M7t5V-15" target="qjlO5Mem31rVgN0M7t5V-18">
          <mxGeometry relative="1" as="geometry" />
        </mxCell>
        <mxCell id="qjlO5Mem31rVgN0M7t5V-15" value="更改圆心图元非几何数据" style="whiteSpace=wrap;html=1;rounded=0;" vertex="1" parent="1">
          <mxGeometry x="480" y="340" width="120" height="60" as="geometry" />
        </mxCell>
        <mxCell id="qjlO5Mem31rVgN0M7t5V-20" style="edgeStyle=orthogonalEdgeStyle;rounded=0;orthogonalLoop=1;jettySize=auto;html=1;entryX=1;entryY=0.5;entryDx=0;entryDy=0;" edge="1" parent="1" source="qjlO5Mem31rVgN0M7t5V-18" target="qjlO5Mem31rVgN0M7t5V-21">
          <mxGeometry relative="1" as="geometry">
            <mxPoint x="310" y="480" as="targetPoint" />
          </mxGeometry>
        </mxCell>
        <mxCell id="qjlO5Mem31rVgN0M7t5V-18" value="更改圆弧几何数据" style="rounded=0;whiteSpace=wrap;html=1;" vertex="1" parent="1">
          <mxGeometry x="480" y="440" width="120" height="60" as="geometry" />
        </mxCell>
        <mxCell id="qjlO5Mem31rVgN0M7t5V-24" style="edgeStyle=orthogonalEdgeStyle;rounded=0;orthogonalLoop=1;jettySize=auto;html=1;entryX=1;entryY=0.5;entryDx=0;entryDy=0;" edge="1" parent="1" source="qjlO5Mem31rVgN0M7t5V-21" target="qjlO5Mem31rVgN0M7t5V-23">
          <mxGeometry relative="1" as="geometry" />
        </mxCell>
        <mxCell id="qjlO5Mem31rVgN0M7t5V-21" value="更改圆弧非几何数据" style="rounded=0;whiteSpace=wrap;html=1;" vertex="1" parent="1">
          <mxGeometry x="320" y="440" width="120" height="60" as="geometry" />
        </mxCell>
        <mxCell id="qjlO5Mem31rVgN0M7t5V-23" value="结束" style="rounded=1;whiteSpace=wrap;html=1;" vertex="1" parent="1">
          <mxGeometry x="160" y="440" width="120" height="60" as="geometry" />
        </mxCell>
        <mxCell id="qjlO5Mem31rVgN0M7t5V-61" style="edgeStyle=orthogonalEdgeStyle;rounded=0;orthogonalLoop=1;jettySize=auto;html=1;entryX=0;entryY=0.5;entryDx=0;entryDy=0;" edge="1" parent="1" source="qjlO5Mem31rVgN0M7t5V-62" target="qjlO5Mem31rVgN0M7t5V-64">
          <mxGeometry relative="1" as="geometry" />
        </mxCell>
        <mxCell id="qjlO5Mem31rVgN0M7t5V-62" value="开始" style="rounded=1;whiteSpace=wrap;html=1;" vertex="1" parent="1">
          <mxGeometry x="350" y="1130" width="120" height="60" as="geometry" />
        </mxCell>
        <mxCell id="qjlO5Mem31rVgN0M7t5V-63" value="" style="edgeStyle=orthogonalEdgeStyle;rounded=0;orthogonalLoop=1;jettySize=auto;html=1;" edge="1" parent="1" source="qjlO5Mem31rVgN0M7t5V-64" target="qjlO5Mem31rVgN0M7t5V-66">
          <mxGeometry relative="1" as="geometry" />
        </mxCell>
        <mxCell id="qjlO5Mem31rVgN0M7t5V-64" value="选中圆弧移动圆弧半径" style="rounded=0;whiteSpace=wrap;html=1;" vertex="1" parent="1">
          <mxGeometry x="520" y="1130" width="120" height="60" as="geometry" />
        </mxCell>
        <mxCell id="qjlO5Mem31rVgN0M7t5V-65" value="" style="edgeStyle=orthogonalEdgeStyle;rounded=0;orthogonalLoop=1;jettySize=auto;html=1;" edge="1" parent="1" source="qjlO5Mem31rVgN0M7t5V-66" target="qjlO5Mem31rVgN0M7t5V-68">
          <mxGeometry relative="1" as="geometry" />
        </mxCell>
        <mxCell id="qjlO5Mem31rVgN0M7t5V-66" value="更改圆弧半径几何数据" style="whiteSpace=wrap;html=1;rounded=0;" vertex="1" parent="1">
          <mxGeometry x="720" y="1130" width="120" height="60" as="geometry" />
        </mxCell>
        <mxCell id="qjlO5Mem31rVgN0M7t5V-67" style="edgeStyle=orthogonalEdgeStyle;rounded=0;orthogonalLoop=1;jettySize=auto;html=1;entryX=1;entryY=0.5;entryDx=0;entryDy=0;" edge="1" parent="1" source="qjlO5Mem31rVgN0M7t5V-68" target="qjlO5Mem31rVgN0M7t5V-70">
          <mxGeometry relative="1" as="geometry">
            <Array as="points">
              <mxPoint x="980" y="1280" />
            </Array>
          </mxGeometry>
        </mxCell>
        <mxCell id="qjlO5Mem31rVgN0M7t5V-68" value="更改圆弧非几何数据" style="whiteSpace=wrap;html=1;rounded=0;" vertex="1" parent="1">
          <mxGeometry x="920" y="1130" width="120" height="60" as="geometry" />
        </mxCell>
        <mxCell id="qjlO5Mem31rVgN0M7t5V-69" style="edgeStyle=orthogonalEdgeStyle;rounded=0;orthogonalLoop=1;jettySize=auto;html=1;entryX=1;entryY=0.5;entryDx=0;entryDy=0;" edge="1" parent="1" source="qjlO5Mem31rVgN0M7t5V-70" target="qjlO5Mem31rVgN0M7t5V-72">
          <mxGeometry relative="1" as="geometry">
            <mxPoint x="650" y="1280" as="targetPoint" />
          </mxGeometry>
        </mxCell>
        <mxCell id="qjlO5Mem31rVgN0M7t5V-70" value="更改圆弧起点、终点几何数据" style="rounded=0;whiteSpace=wrap;html=1;" vertex="1" parent="1">
          <mxGeometry x="820" y="1250" width="120" height="60" as="geometry" />
        </mxCell>
        <mxCell id="qjlO5Mem31rVgN0M7t5V-71" style="edgeStyle=orthogonalEdgeStyle;rounded=0;orthogonalLoop=1;jettySize=auto;html=1;entryX=1;entryY=0.5;entryDx=0;entryDy=0;" edge="1" parent="1" source="qjlO5Mem31rVgN0M7t5V-72" target="qjlO5Mem31rVgN0M7t5V-73">
          <mxGeometry relative="1" as="geometry" />
        </mxCell>
        <mxCell id="qjlO5Mem31rVgN0M7t5V-72" value="更改圆弧端点图元非几何数据" style="rounded=0;whiteSpace=wrap;html=1;" vertex="1" parent="1">
          <mxGeometry x="590" y="1250" width="120" height="60" as="geometry" />
        </mxCell>
        <mxCell id="qjlO5Mem31rVgN0M7t5V-73" value="结束" style="rounded=1;whiteSpace=wrap;html=1;" vertex="1" parent="1">
          <mxGeometry x="350" y="1250" width="120" height="60" as="geometry" />
        </mxCell>
      </root>
    </mxGraphModel>
  </diagram>
</mxfile>
